<svg xmlns="http://www.w3.org/2000/svg" width="512" height="512" id="bird">
  <path d="M256.989 448.569L242.401 415.047C239.571 409.07 240.25 406.994 234.142 403.975C224.491 399.205 217.879 389.5 217.625 378.66L217.506 371.484C212.858 370.253 208.204 369.478 203.574 368.038C173.334 358.629 162.234 349.685 136.79 374.367L80.4574 428.841C70.7918 437.477 70.6213 436.779 59.5212 432.557C44.3567 426.789 38.7775 429.674 23.7657 428.63C19.3859 428.326 15.2962 424.406 15.793 419.841C16.2626 415.527 20.8458 412.427 23.6718 409.619L36.6823 396.924L93.2542 347.613C97.2706 344.342 100.542 344.14 105.507 344.642C105.224 343.957 104.536 343.275 104.125 342.635C98.7985 334.346 104.323 329.64 108.854 322.994L157.775 251.638C174.138 228.443 191.736 205.721 211.587 185.387L235.941 162.368C239.071 159.603 242.502 157.148 245.544 154.299C249.139 150.931 252.36 147.112 255.816 143.596L291.496 109.455C309.768 91.2922 311.478 85.6013 320.306 63.4229C331.84 34.4492 357.768 17.1327 388.161 14.8563C388.437 14.749 389.34 14.8142 389.674 14.8076L394.92 14.905C411.417 15.9505 428.096 22.8304 438.732 35.7957L443.502 41.9793C445.815 44.8657 451.229 44.5633 454.778 45.5424C468.406 49.3018 482.021 56.819 491.825 67.0981C498.957 74.5759 496.535 81.1673 485.972 82.3861L475.105 83.5607C469.206 84.4592 441.815 90.2923 438.841 94.0141C436.689 96.7064 437.949 106.411 438.972 109.206C440.035 112.109 441.744 114.748 443.092 117.523C449.474 130.656 452.107 145.879 452.184 160.418C452.573 233.832 401.554 297.11 341.695 334.541L333.292 339.575C326.043 343.499 325.379 342.207 320.71 349.262L296.168 385.143C292.994 389.831 290.083 394.733 286.696 399.268L300.438 441.203C302.429 446.588 301.962 444.281 307.991 445.413C317.915 447.277 324.738 451.104 331.78 458.218L334.877 461.426C336.594 463.225 337.614 462.648 340.041 462.95C345.852 463.673 352.111 465.7 356.737 469.42C360.307 472.292 361.795 477.531 358.459 481.201C353.281 486.897 347.641 481.997 341.871 480.861C338.326 480.163 334.295 480.238 330.698 480.426C334.228 484.059 340.3 484.686 343.125 489.501C346.341 494.982 341.914 503.948 335 501.992C331.009 500.864 327.446 498.02 324.008 495.761L311.953 488.207C304.024 483.244 299.001 479.541 289.479 479.13L251.227 479.001C249.242 478.969 245.158 478.129 243.422 479.196L243.16 479.375C241.396 480.548 240.056 482.325 238.547 483.801C230.173 491.992 218.449 480.534 226.75 473.611L232.973 468.892C239.73 463.7 241.637 461.693 250.259 461.716C257.252 461.735 264.089 462.577 271.038 463.251C267.076 461.424 261.859 459.361 259.708 455.324L256.989 448.569ZM270.572 440.693L273.206 446.79L283.927 443.077L271.236 402.308C270.058 398.075 270.173 396.457 272.505 392.823L290.392 366.412C291.735 364.519 293.714 362.637 294.789 360.627L294.976 360.267L295.207 360.059L294.976 360.267C292.325 360.928 288.329 363.397 285.473 364.493L268.49 370.191C266.811 386.289 267.958 393.563 251.556 401.938C256.103 406.119 258.959 412.848 261.428 418.386L270.572 440.693ZM390.36 30.6201C365.569 31.3582 344.894 45.5136 335.138 67.9844L328.539 84.7505C321.574 100.75 310.07 113.886 297.388 125.66L290.391 132.087C289.003 133.347 287.362 134.597 286.215 136.066C314.955 124.684 353.064 137.271 364.708 167.044C371.679 184.872 368.796 205.681 361.165 222.825C349.784 248.393 326.742 269.441 303.335 284.369L285.89 294.426C248.121 314.996 210.798 324.325 169.178 334.403L145.015 340.448C131.641 343.865 123.195 345.277 109.553 346.816C110.905 353.593 109.162 354.637 104.194 358.959L47.4068 408.286C45.8393 409.805 44.4334 411.637 42.7997 413.028C50.0702 413.353 56.1001 414.327 62.9926 416.997L68.125 419.217L123.33 365.852C156.303 333.52 168.66 341.143 211.089 353.756L220.795 356.486C224.919 357.47 228.858 357.272 231.375 361.199L231.586 361.508C235.162 366.993 229.389 378.7 236.94 386.625C239.949 389.782 243.214 390.521 246.887 387.879C258.768 379.333 245.13 362.825 262.028 356.515L283.156 348.548L301.183 340.018C364.609 307.585 422.869 256.117 435.204 182.386C437.999 165.68 437.431 148.01 432.097 131.845C430.48 126.947 428.011 122.556 425.925 117.869C420.806 106.37 420.823 93.2621 428.418 82.9245C429.975 80.8055 430.832 80.668 430.779 78.0728L430.825 74.4706C431.015 68.5329 431.478 61.7634 433.392 56.1097L433.141 55.8118C430.499 52.6286 428.788 48.6916 426.248 45.3953C419.978 37.2617 408.183 31.821 397.941 30.8358L390.36 30.6201ZM447.212 60.5908L447.243 73.2139L464.557 69.3638L468.88 67.9988L459.658 63.8345C455.995 62.3234 451.94 61.2022 448.011 60.696L447.212 60.5908ZM303.932 147.822C272.48 150.934 251.794 167.571 230.307 188.395C219.663 198.71 209.607 209.524 200.196 220.979L167.517 264.842C161.619 273.42 155.515 282.186 150.578 291.357C209.391 288.419 311.773 250.787 329.613 190.587C333.904 176.106 345.758 181.16 345.465 188.726C344.693 208.735 325.809 230.99 311.56 243.969L301.087 252.686C265.834 279.411 221.132 295.982 177.797 303.708C165.798 305.848 151.185 308.568 139.219 304.958C134.856 313.332 128.922 321.24 123.103 328.648L163.443 319.789C223.7 306.263 301.191 284.039 338.79 230.66C365.567 192.644 354.684 145.221 303.932 147.822ZM286.84 457.391C291.662 462.986 295.986 464.645 303.424 465.193L316.914 465.299C307.736 461.073 297.216 461.475 286.84 457.391Z"></path>
  <path d="M397.007 72.9821C374.346 74.7699 369.146 41.7693 393.271 37.5695C414.082 34.8886 420.481 68.8639 397.007 72.9821ZM393.638 53.375C391.62 55.1433 393.411 58.0347 395.481 57.3535L395.875 57.1723C398.314 55.0865 396.684 52.5908 393.638 53.375Z"></path>
</svg>
