<svg xmlns="http://www.w3.org/2000/svg" viewBox="0 0 512 512" id="mixer">
  <g>
    <path d="M61.28 216H258.093a47.168 47.168 0 0 0 92.288 0H450.72a10 10 0 0 0 0-20H350.381a47.168 47.168 0 0 0-92.288 0H61.28a10 10 0 1 0 0 20zm242.957-37.393A27.394 27.394 0 1 1 277.026 206 27.334 27.334 0 0 1 304.237 178.607zM61.28 116H161.619a47.168 47.168 0 0 0 92.288 0H450.72a10 10 0 0 0 0-20H253.907a47.168 47.168 0 0 0-92.288 0H61.28a10 10 0 0 0 0 20zM207.763 78.607A27.394 27.394 0 1 1 180.552 106 27.334 27.334 0 0 1 207.763 78.607zM61.28 316H161.619a47.168 47.168 0 0 0 92.288 0H450.72a10 10 0 0 0 0-20H253.907a47.168 47.168 0 0 0-92.288 0H61.28a10 10 0 1 0 0 20zm146.483-37.393A27.394 27.394 0 1 1 180.552 306 27.334 27.334 0 0 1 207.763 278.607zM61.28 416H258.093a47.168 47.168 0 0 0 92.288 0H450.72a10 10 0 0 0 0-20H350.381a47.168 47.168 0 0 0-92.288 0H61.28a10 10 0 1 0 0 20zm242.957-37.393A27.394 27.394 0 1 1 277.026 406 27.334 27.334 0 0 1 304.237 378.607z"></path>
  </g>
</svg>
